<svg id="Layer_4" data-name="Layer 4" xmlns="http://www.w3.org/2000/svg" viewBox="0 0 101.83 99"><title>Vector Smart Object5</title><polygon points="78.42 45.08 78.42 52.08 86.84 52.08 63.68 75.44 20.31 39.85 8.57 52.82 13.76 57.52 21.02 49.49 64.16 84.89 91.92 56.9 91.92 65.58 98.92 65.58 98.92 45.08 78.42 45.08" style="fill:#04b700"/><polygon points="99 99 0 99 0 0 4 0 4 95 99 95 99 99" style="fill:#282d33"/><path d="M694,1319.29v0Z" transform="translate(-681.78 -1223.58)" style="fill:#fff"/><rect x="10.23" y="89.83" width="4" height="5.88" style="fill:#282d33"/><path d="M707.42,1319.29v0Z" transform="translate(-681.78 -1223.58)" style="fill:#fff"/><rect x="23.64" y="89.83" width="4" height="5.88" style="fill:#282d33"/><path d="M720.82,1319.29v0Z" transform="translate(-681.78 -1223.58)" style="fill:#fff"/><rect x="37.04" y="89.83" width="4" height="5.88" style="fill:#282d33"/><path d="M734.23,1319.29v0Z" transform="translate(-681.78 -1223.58)" style="fill:#fff"/><rect x="50.45" y="89.83" width="4" height="5.88" style="fill:#282d33"/><path d="M747.63,1319.29v0Z" transform="translate(-681.78 -1223.58)" style="fill:#fff"/><rect x="63.86" y="89.83" width="4" height="5.88" style="fill:#282d33"/><path d="M761,1319.29v0Z" transform="translate(-681.78 -1223.58)" style="fill:#fff"/><rect x="77.26" y="89.83" width="4" height="5.88" style="fill:#282d33"/><path d="M774.45,1319.29v0Z" transform="translate(-681.78 -1223.58)" style="fill:#fff"/><rect x="90.67" y="89.83" width="4" height="5.88" style="fill:#282d33"/><path d="M683.57,1228.84h0Z" transform="translate(-681.78 -1223.58)" style="fill:#fff"/><rect x="1.79" y="3.26" width="5.87" height="4" style="fill:#282d33"/><path d="M683.57,1242.25h0Z" transform="translate(-681.78 -1223.58)" style="fill:#fff"/><rect x="1.79" y="16.67" width="5.87" height="4" style="fill:#282d33"/><path d="M683.57,1255.65h0Z" transform="translate(-681.78 -1223.58)" style="fill:#fff"/><rect x="1.79" y="30.07" width="5.87" height="4" style="fill:#282d33"/><path d="M683.57,1269.06h0Z" transform="translate(-681.78 -1223.58)" style="fill:#fff"/><rect x="1.79" y="43.48" width="5.87" height="4" style="fill:#282d33"/><path d="M683.57,1282.46h0Z" transform="translate(-681.78 -1223.58)" style="fill:#fff"/><rect x="1.79" y="56.89" width="5.87" height="4" style="fill:#282d33"/><path d="M683.57,1295.87h0Z" transform="translate(-681.78 -1223.58)" style="fill:#fff"/><rect x="1.79" y="70.29" width="5.87" height="4" style="fill:#282d33"/><path d="M683.57,1309.28h0Z" transform="translate(-681.78 -1223.58)" style="fill:#fff"/><rect x="1.79" y="83.7" width="5.87" height="4" style="fill:#282d33"/><polygon points="78.83 12.08 78.83 20.08 87.05 20.08 61.67 44.67 47.54 32.56 10.93 71.33 16.74 76.82 48.13 43.59 62 55.48 91.83 26.58 91.83 33.08 99.83 33.08 99.83 12.08 78.83 12.08" style="fill:#fff"/><path d="M698.6,1303.23l-8.72-8.24,39.3-41.61,14.19,12.16,20.53-19.88h-5.28v-12h25v25h-12v-3.77l-27.75,26.89L730,1269.93Zm-3.07-8.4,2.91,2.75,31.32-33.16,13.94,11.95,31.92-30.92v9.22h4v-17h-17v4h11.16L743.53,1271l-14.06-12.05Z" transform="translate(-681.78 -1223.58)" style="fill:#282d33"/></svg>