<svg id="Layer_4" data-name="Layer 4" xmlns="http://www.w3.org/2000/svg" viewBox="0 0 92.36 100.42"><title>Vector Smart Object6</title><rect x="38.42" y="2.06" width="28.42" height="96.48" style="fill:#f8c44f"/><rect x="37.63" width="30" height="5.08" style="fill:#f8c44f"/><rect x="21.11" y="46.31" width="27.63" height="52.12" style="fill:#fff"/><path d="M113.07,401.73H81.44V345.61h31.63v56.12Zm-27.63-4h23.63V349.61H85.44v48.12Z" transform="translate(-62.33 -301.31)" style="fill:#282d33"/><rect x="20.32" y="41.15" width="29.21" height="6.16" style="fill:#fff"/><path d="M113.86,350.61H80.65V340.46h33.21v10.16Zm-29.21-4h25.21v-2.16H84.65v2.16Z" transform="translate(-62.33 -301.31)" style="fill:#282d33"/><path d="M87.95,355.51h0Z" transform="translate(-62.33 -301.31)" style="fill:#fff"/><rect x="25.62" y="52.2" width="3.7" height="4" style="fill:#282d33"/><path d="M95.35,355.51h0Z" transform="translate(-62.33 -301.31)" style="fill:#fff"/><rect x="33.01" y="52.2" width="3.7" height="4" style="fill:#282d33"/><path d="M102.74,355.51h0Z" transform="translate(-62.33 -301.31)" style="fill:#fff"/><rect x="40.41" y="52.2" width="3.71" height="4" style="fill:#282d33"/><path d="M87.95,362.51h0Z" transform="translate(-62.33 -301.31)" style="fill:#fff"/><rect x="25.62" y="59.2" width="3.7" height="4" style="fill:#282d33"/><path d="M95.35,362.51h0Z" transform="translate(-62.33 -301.31)" style="fill:#fff"/><rect x="33.01" y="59.2" width="3.7" height="4" style="fill:#282d33"/><path d="M102.74,362.51h0Z" transform="translate(-62.33 -301.31)" style="fill:#fff"/><rect x="40.41" y="59.2" width="3.71" height="4" style="fill:#282d33"/><path d="M87.95,369.51h0Z" transform="translate(-62.33 -301.31)" style="fill:#fff"/><rect x="25.62" y="66.2" width="3.7" height="4" style="fill:#282d33"/><path d="M95.35,369.51h0Z" transform="translate(-62.33 -301.31)" style="fill:#fff"/><rect x="33.01" y="66.2" width="3.7" height="4" style="fill:#282d33"/><path d="M102.74,369.51h0Z" transform="translate(-62.33 -301.31)" style="fill:#fff"/><rect x="40.41" y="66.2" width="3.71" height="4" style="fill:#282d33"/><path d="M87.95,376.51h0Z" transform="translate(-62.33 -301.31)" style="fill:#fff"/><rect x="25.62" y="73.2" width="3.7" height="4" style="fill:#282d33"/><path d="M95.35,376.51h0Z" transform="translate(-62.33 -301.31)" style="fill:#fff"/><rect x="33.01" y="73.2" width="3.7" height="4" style="fill:#282d33"/><path d="M102.74,376.51h0Z" transform="translate(-62.33 -301.31)" style="fill:#fff"/><rect x="40.41" y="73.2" width="3.71" height="4" style="fill:#282d33"/><path d="M87.95,383.51h0Z" transform="translate(-62.33 -301.31)" style="fill:#fff"/><rect x="25.62" y="80.2" width="3.7" height="4" style="fill:#282d33"/><path d="M95.35,383.51h0Z" transform="translate(-62.33 -301.31)" style="fill:#fff"/><rect x="33.01" y="80.2" width="3.7" height="4" style="fill:#282d33"/><path d="M102.74,383.51h0Z" transform="translate(-62.33 -301.31)" style="fill:#fff"/><rect x="40.41" y="80.2" width="3.71" height="4" style="fill:#282d33"/><path d="M87.95,390.51h0Z" transform="translate(-62.33 -301.31)" style="fill:#fff"/><rect x="25.62" y="87.2" width="3.7" height="4" style="fill:#282d33"/><path d="M95.35,390.51h0Z" transform="translate(-62.33 -301.31)" style="fill:#fff"/><rect x="33.01" y="87.2" width="3.7" height="4" style="fill:#282d33"/><path d="M102.74,390.51h0Z" transform="translate(-62.33 -301.31)" style="fill:#fff"/><rect x="40.41" y="87.2" width="3.71" height="4" style="fill:#282d33"/><rect x="64.73" y="35.23" width="25.63" height="63.19" style="fill:#04b700"/><path d="M154.69,401.73H125.06V334.54h29.63v67.19Zm-25.63-4h21.63V338.54H129.06v59.19Z" transform="translate(-62.33 -301.31)" style="fill:#282d33"/><rect x="68.27" y="28.76" width="18.54" height="6.45" style="fill:#04b700"/><path d="M151.15,338.51H128.61V328.06h22.54v10.45Zm-18.54-4h14.54v-2.45H132.61v2.45Z" transform="translate(-62.33 -301.31)" style="fill:#282d33"/><rect x="68.92" y="40.08" width="17.25" height="4" style="fill:#fff"/><rect x="68.92" y="48.08" width="17.25" height="4" style="fill:#fff"/><rect x="68.92" y="56.08" width="17.25" height="4" style="fill:#fff"/><rect x="68.92" y="64.08" width="17.25" height="4" style="fill:#fff"/><rect x="68.92" y="72.08" width="17.25" height="4" style="fill:#fff"/><rect x="68.92" y="80.08" width="17.25" height="4" style="fill:#fff"/><rect x="68.92" y="88.08" width="17.25" height="4" style="fill:#fff"/><path d="M139.88,329.17v0Z" transform="translate(-62.33 -301.31)" style="fill:#5eb4e7"/><rect x="75.54" y="18.53" width="4" height="9.33" style="fill:#282d33"/><path d="M70.33,334.6h0Z" transform="translate(-62.33 -301.31)" style="fill:#fff"/><rect x="8" y="31.29" width="10" height="4" style="fill:#282d33"/><path d="M66.4,334.6h0Z" transform="translate(-62.33 -301.31)" style="fill:#fff"/><rect y="31.29" width="4.06" height="4" style="fill:#282d33"/><path d="M123.64,312.17h0Z" transform="translate(-62.33 -301.31)" style="fill:#fff"/><rect x="57.24" y="8.87" width="4.06" height="4" style="fill:#282d33"/><rect x="12.07" y="96.42" width="51" height="4" style="fill:#282d33"/><circle cx="24.99" cy="20.62" r="5.25" style="fill:#fff"/><path d="M87.32,329.17a7.25,7.25,0,1,1,7.25-7.25A7.26,7.26,0,0,1,87.32,329.17Zm0-10.5a3.25,3.25,0,1,0,3.25,3.25A3.25,3.25,0,0,0,87.32,318.67Z" transform="translate(-62.33 -301.31)" style="fill:#282d33"/><circle cx="36.37" cy="18.49" r="8.63" style="fill:#fff"/><path d="M98.7,330.42a10.63,10.63,0,1,1,10.63-10.63A10.64,10.64,0,0,1,98.7,330.42Zm0-17.25a6.63,6.63,0,1,0,6.63,6.62A6.63,6.63,0,0,0,98.7,313.17Z" transform="translate(-62.33 -301.31)" style="fill:#282d33"/><circle cx="46.74" cy="20.62" r="5.25" style="fill:#fff"/><path d="M109.07,329.17a7.25,7.25,0,1,1,7.25-7.25A7.26,7.26,0,0,1,109.07,329.17Zm0-10.5a3.25,3.25,0,1,0,3.25,3.25A3.25,3.25,0,0,0,109.07,318.67Z" transform="translate(-62.33 -301.31)" style="fill:#282d33"/></svg>