<svg id="Layer_4" data-name="Layer 4" xmlns="http://www.w3.org/2000/svg" viewBox="0 0 101.5 80.5"><title>Vector Smart Object3</title><rect x="8" y="19.25" width="85.5" height="53.25" style="fill:#04b700"/><rect x="22" y="13" width="8.5" height="65.75" style="fill:#f8c44f"/><rect x="71" y="13" width="8.5" height="65.75" style="fill:#f8c44f"/><path d="M239,357.93h-5.13c-8.68,0-14.51-6.76-14.51-16.83V327.83h4V341.1c0,6.2,2.76,12.83,10.51,12.83H239v4Z" transform="translate(-219.25 -310.2)" style="fill:#282d33"/><path d="M306.12,357.93h-5.18v-4h5.18c7.75,0,10.51-6.68,10.51-12.93V327.73h4V341C320.63,351.13,314.8,357.93,306.12,357.93Z" transform="translate(-219.25 -310.2)" style="fill:#282d33"/><rect x="28.29" y="13.51" width="4" height="22.87" style="fill:#282d33"/><rect x="20.25" y="13.51" width="4" height="22.87" style="fill:#282d33"/><rect x="28.29" y="54.92" width="4" height="22.87" style="fill:#282d33"/><rect x="20.25" y="54.92" width="4" height="22.87" style="fill:#282d33"/><path d="M250.33,367.58H240.7a3.63,3.63,0,0,1-3.62-3.62V348.69a3.63,3.63,0,0,1,3.62-3.62h9.63a3.62,3.62,0,0,1,3.62,3.62V364A3.63,3.63,0,0,1,250.33,367.58Zm-9.25-4H250V349.07h-8.87v14.51Z" transform="translate(-219.25 -310.2)" style="fill:#282d33"/><rect x="24.27" y="48.94" width="4" height="5.42" style="fill:#282d33"/><rect x="77.25" y="13.51" width="4" height="22.87" style="fill:#282d33"/><rect x="69.21" y="13.51" width="4" height="22.87" style="fill:#282d33"/><rect x="77.25" y="54.92" width="4" height="22.87" style="fill:#282d33"/><rect x="69.21" y="54.92" width="4" height="22.87" style="fill:#282d33"/><path d="M299.3,367.58h-9.63A3.63,3.63,0,0,1,286,364V348.69a3.63,3.63,0,0,1,3.62-3.62h9.63a3.62,3.62,0,0,1,3.62,3.62V364A3.63,3.63,0,0,1,299.3,367.58Zm-9.25-4h8.87V349.07H290v14.51Z" transform="translate(-219.25 -310.2)" style="fill:#282d33"/><rect x="73.23" y="48.94" width="4" height="5.42" style="fill:#282d33"/><rect x="32.65" y="43.73" width="36.21" height="4" style="fill:#282d33"/><path d="M320.75,390.7H219.25V321.45h101.5V390.7Zm-97.5-4h93.5V325.45h-93.5V386.7Z" transform="translate(-219.25 -310.2)" style="fill:#282d33"/><polygon points="65.42 8.5 61.42 8.5 61.42 4 40.08 4 40.08 8.5 36.08 8.5 36.08 0 65.42 0 65.42 8.5" style="fill:#282d33"/></svg>