<svg id="Layer_4" data-name="Layer 4" xmlns="http://www.w3.org/2000/svg" viewBox="0 0 91.02 94.55"><title>Vector Smart Object</title><rect x="15.46" y="8" width="49.04" height="55.93" style="fill:#04b700"/><path d="M534.62,537.86h-4.15V465.25h0.23a10.85,10.85,0,0,1,10.55-8.6H603v71.93H541.25a6.79,6.79,0,0,0-6.78,6.78c0,0.08,0,.15,0,0.22Zm-0.15-70.16V527a10.73,10.73,0,0,1,6.78-2.41H599V460.65H541.25a6.81,6.81,0,0,0-6.77,6.64v0.41Z" transform="translate(-530.47 -456.65)" style="fill:#282d33"/><path d="M601,526.58H541.25a8.78,8.78,0,1,0,0,17.56H601V526.58Z" transform="translate(-530.47 -456.65)" style="fill:#fff"/><path d="M603,546.14H541.25a10.78,10.78,0,1,1,0-21.56H603v21.56Zm-61.72-17.56a6.78,6.78,0,1,0,0,13.56H599V528.58H541.25Z" transform="translate(-530.47 -456.65)" style="fill:#282d33"/><path d="M619.5,462.84v-3.43a0.94,0.94,0,0,0-1-.76H611a0.94,0.94,0,0,0-1.05.76v3.43h9.56Z" transform="translate(-530.47 -456.65)" style="fill:#fff"/><path d="M621.5,462.84h-4v-2.19h-5.56v2.19h-4v-3.43a2.89,2.89,0,0,1,3.05-2.76h7.46a2.89,2.89,0,0,1,3,2.76v3.43Z" transform="translate(-530.47 -456.65)" style="fill:#282d33"/><polygon points="27.89 94.55 21.52 90.5 15.15 94.55 15.15 79.47 21.52 79.47 27.89 79.47 27.89 94.55" style="fill:#f8c44f"/><path d="M540.6,535.86h0Z" transform="translate(-530.47 -456.65)" style="fill:#fff"/><rect x="10.13" y="77.22" width="60.37" height="4" style="fill:#282d33"/><path d="M540.6,526v0Z" transform="translate(-530.47 -456.65)" style="fill:#fff"/><rect x="8.13" y="2.85" width="4" height="66.54" style="fill:#282d33"/><rect x="79.46" y="10.14" width="9.56" height="46.56" style="fill:#f8c44f"/><path d="M621.5,515.34H607.93V464.78H621.5v50.56Zm-9.56-4h5.56V468.78h-5.56v42.56Z" transform="translate(-530.47 -456.65)" style="fill:#282d33"/><polygon points="84.25 75.99 77.47 59.22 77.47 57.35 81.47 57.35 81.47 58.44 84.25 65.31 87.02 58.45 87.02 57.35 91.02 57.35 91.02 59.22 84.25 75.99" style="fill:#282d33"/><rect x="26.8" y="31.8" width="27" height="4" style="fill:#fff"/><rect x="29.96" y="23.3" width="20.67" height="4" style="fill:#fff"/></svg>