<svg id="Layer_4" data-name="Layer 4" xmlns="http://www.w3.org/2000/svg" viewBox="0 0 94.07 105.33"><title>Vector Smart Object7</title><path d="M883.36,1771.94a37.25,37.25,0,0,1-4.26-.24l0.46-4a33.23,33.23,0,0,0,3.8.22h0.13l0,4h-0.15Zm4.4-.26-0.47-4A32.75,32.75,0,0,0,891,1767l0.93,3.89A36.81,36.81,0,0,1,887.76,1771.67Zm-12.87-.72a36.69,36.69,0,0,1-4.09-1.22l1.37-3.76a32.34,32.34,0,0,0,3.64,1.09Zm21.15-1.27-1.38-3.75a32.82,32.82,0,0,0,3.48-1.52L900,1768A36.76,36.76,0,0,1,896,1769.68ZM866.88,1768a37.17,37.17,0,0,1-3.7-2.13l2.2-3.34a32.76,32.76,0,0,0,3.29,1.9Zm36.77-2.22-2.21-3.33a33.09,33.09,0,0,0,3-2.29l2.59,3.05A37,37,0,0,1,903.64,1765.82Zm-43.88-2.46a36.79,36.79,0,0,1-3.11-2.93l2.91-2.75a32.82,32.82,0,0,0,2.77,2.61Zm50.38-3-2.92-2.73a33,33,0,0,0,2.44-2.92l3.22,2.38A36.93,36.93,0,0,1,910.14,1760.32Zm-56.24-3.15a37.12,37.12,0,0,1-2.35-3.56l3.46-2a32.85,32.85,0,0,0,2.1,3.17Zm61.3-3.71-3.47-2a32.68,32.68,0,0,0,1.7-3.4l3.68,1.57A36.54,36.54,0,0,1,915.21,1753.47Zm-65.58-3.66a36.58,36.58,0,0,1-1.47-4l3.83-1.15a32.54,32.54,0,0,0,1.3,3.57Zm68.93-4.18-3.84-1.13a32.62,32.62,0,0,0,.86-3.7l3.94,0.68A36.37,36.37,0,0,1,918.56,1745.63Zm-71.38-4a37,37,0,0,1-.5-4.24l4-.24a32.8,32.8,0,0,0,.44,3.78Zm72.82-4.41-4-.22q0-.9,0-1.8t-0.06-2l4-.24c0,0.74.07,1.5,0.07,2.25S920,1736.56,920,1737.23Zm-69.33-3.86-4-.22a37,37,0,0,1,.48-4.24l3.94,0.68A32.72,32.72,0,0,0,850.67,1733.36Zm64.88-3.93a32.55,32.55,0,0,0-.88-3.7l3.83-1.16a36.64,36.64,0,0,1,1,4.15ZM852,1725.88l-3.83-1.14a36.37,36.37,0,0,1,1.46-4l3.67,1.58A32.4,32.4,0,0,0,852,1725.88Zm61.38-3.72a32.83,32.83,0,0,0-1.72-3.39l3.46-2a37,37,0,0,1,1.93,3.81ZM855,1718.91l-3.46-2a36.65,36.65,0,0,1,2.34-3.57l3.21,2.39A32.77,32.77,0,0,0,855,1718.91Zm54.57-3.3a32.89,32.89,0,0,0-2.45-2.91l2.9-2.75a37.3,37.3,0,0,1,2.75,3.26Zm-50-2.79-2.91-2.74a37.09,37.09,0,0,1,3.1-2.93l2.58,3.06A33,33,0,0,0,859.5,1712.81Zm44.81-2.72a33.22,33.22,0,0,0-3.06-2.27l2.19-3.35a37,37,0,0,1,3.43,2.54Zm-39-2.17-2.21-3.34a36.89,36.89,0,0,1,3.69-2.14l1.8,3.57A32.81,32.81,0,0,0,865.31,1707.92Zm32.64-2a32.37,32.37,0,0,0-3.5-1.5l1.36-3.76a36.84,36.84,0,0,1,3.93,1.68Zm-25.87-1.44-1.37-3.76a36.86,36.86,0,0,1,4.09-1.23l0.93,3.89A32.72,32.72,0,0,0,872.08,1704.5Zm18.73-1.14a33,33,0,0,0-3.75-.64l0.45-4a36.79,36.79,0,0,1,4.21.72Zm-11.34-.62-0.47-4a37.25,37.25,0,0,1,4.26-.26v4A33.24,33.24,0,0,0,879.47,1702.74Z" transform="translate(-835.5 -1679.84)" style="fill:#282d33"/><circle cx="25.17" cy="25.17" r="23.17" style="fill:#fff"/><path d="M860.67,1730.18A25.17,25.17,0,1,1,885.84,1705,25.2,25.2,0,0,1,860.67,1730.18Zm0-46.34A21.17,21.17,0,1,0,881.84,1705,21.19,21.19,0,0,0,860.67,1683.84Z" transform="translate(-835.5 -1679.84)" style="fill:#282d33"/><circle cx="25.17" cy="25.17" r="17.91" style="fill:#f8c44f"/><circle cx="25.17" cy="23.07" r="6.29" style="fill:#fff"/><path d="M860.67,1711.2a8.29,8.29,0,1,1,8.29-8.29A8.3,8.3,0,0,1,860.67,1711.2Zm0-12.58a4.29,4.29,0,1,0,4.29,4.29A4.29,4.29,0,0,0,860.67,1698.62Z" transform="translate(-835.5 -1679.84)" style="fill:#282d33"/><path d="M865.39,1709.9H856a6.29,6.29,0,0,0-6.29,6.29v0.51a16,16,0,0,0,22,0v-0.51A6.29,6.29,0,0,0,865.39,1709.9Z" transform="translate(-835.5 -1679.84)" style="fill:#fff"/><path d="M860.67,1723.08a18,18,0,0,1-12.38-4.92l-0.63-.59v-1.38a8.3,8.3,0,0,1,8.29-8.29h9.43a8.3,8.3,0,0,1,8.29,8.29v1.38l-0.63.59A18,18,0,0,1,860.67,1723.08Zm-9-7.26a14,14,0,0,0,18,0,4.3,4.3,0,0,0-4.27-3.92H856A4.3,4.3,0,0,0,851.68,1715.82Z" transform="translate(-835.5 -1679.84)" style="fill:#282d33"/><path d="M906,1783.18a21.57,21.57,0,1,1,21.57-21.57A21.59,21.59,0,0,1,906,1783.18Z" transform="translate(-835.5 -1679.84)" style="fill:#fff"/><path d="M906,1785.18a23.57,23.57,0,1,1,23.57-23.57A23.59,23.59,0,0,1,906,1785.18Zm0-43.14a19.57,19.57,0,1,0,19.57,19.57A19.59,19.59,0,0,0,906,1742Z" transform="translate(-835.5 -1679.84)" style="fill:#282d33"/><path d="M894,1769.93a14.38,14.38,0,0,1-2.61-8.32,14.58,14.58,0,0,1,29.15,0,14.39,14.39,0,0,1-2.61,8.32,7.8,7.8,0,0,0-7.24-4.92h-9.44A7.8,7.8,0,0,0,894,1769.93Z" transform="translate(-835.5 -1679.84)" style="fill:#04b700"/><circle cx="70.5" cy="79.67" r="6.29" style="fill:#fff"/><path d="M906,1767.8a8.29,8.29,0,1,1,8.29-8.29A8.3,8.3,0,0,1,906,1767.8Zm0-12.58a4.29,4.29,0,1,0,4.29,4.29A4.29,4.29,0,0,0,906,1755.22Z" transform="translate(-835.5 -1679.84)" style="fill:#282d33"/><path d="M919,1780h-4v-7.26a4.29,4.29,0,0,0-4.29-4.29h-9.44a4.3,4.3,0,0,0-4.29,4.29V1780h-4v-7.26a8.3,8.3,0,0,1,8.29-8.29h9.44a8.3,8.3,0,0,1,8.29,8.29V1780Z" transform="translate(-835.5 -1679.84)" style="fill:#282d33"/><rect x="33.08" y="55.32" width="4" height="12.67" style="fill:#282d33"/><rect x="28.74" y="59.66" width="12.67" height="4" style="fill:#282d33"/><rect x="83.41" y="5.99" width="4" height="14.67" style="fill:#282d33"/><rect x="78.08" y="11.32" width="14.67" height="4" style="fill:#282d33"/><circle cx="22.07" cy="77.99" r="9.33" style="fill:#fff"/><path d="M857.58,1769.16a11.33,11.33,0,1,1,11.33-11.33A11.35,11.35,0,0,1,857.58,1769.16Zm0-18.67a7.33,7.33,0,1,0,7.33,7.33A7.34,7.34,0,0,0,857.58,1750.5Z" transform="translate(-835.5 -1679.84)" style="fill:#282d33"/></svg>