<svg id="Layer_4" data-name="Layer 4" xmlns="http://www.w3.org/2000/svg" viewBox="0 0 96.03 98.52"><title>Vector Smart Object4</title><polygon points="71.66 98.08 0 98.08 0 1.61 50.8 1.61 50.8 5.62 4 5.62 4 94.08 67.66 94.08 67.66 22.47 71.66 22.47 71.66 98.08" style="fill:#282d33"/><polygon points="53.98 19.29 71.84 19.29 53.98 1.43 53.98 19.29" style="fill:#04b700"/><rect x="11.05" y="21.54" width="19.43" height="4" style="fill:#282d33"/><rect x="10.69" y="29.98" width="46.15" height="4" style="fill:#282d33"/><rect x="10.69" y="38.42" width="46.15" height="4" style="fill:#282d33"/><rect x="10.69" y="46.86" width="46.15" height="4" style="fill:#282d33"/><rect x="10.69" y="55.3" width="29.87" height="4" style="fill:#282d33"/><polygon points="87.08 98.52 78.21 82.21 78.2 79.3 82.2 79.3 82.21 81.19 87.08 90.14 91.94 81.19 91.94 79.3 95.94 79.3 95.94 82.21 87.08 98.52" style="fill:#282d33"/><rect x="80.12" y="22.25" width="13.91" height="56.95" style="fill:#fff"/><path d="M619.38,1093.37v52.95h-9.91v-52.95h9.91Zm4-4H605.46v60.95h17.91v-60.95h0Z" transform="translate(-527.34 -1069.12)" style="fill:#282d33"/><rect x="85.08" y="21.56" width="4" height="55.86" style="fill:#282d33"/><path d="M621.3,1077.9v-5.54a1.39,1.39,0,0,0-1.51-1.23H609.06a1.39,1.39,0,0,0-1.52,1.23v5.54H621.3Z" transform="translate(-527.34 -1069.12)" style="fill:#fff"/><path d="M623.3,1077.9h-4v-4.77h-9.76v4.77h-4v-5.54a3.39,3.39,0,0,1,3.52-3.23h10.73a3.35,3.35,0,0,1,3.51,3.23v5.54Z" transform="translate(-527.34 -1069.12)" style="fill:#282d33"/><rect x="78.12" y="11.34" width="17.91" height="8.6" style="fill:#f8c44f"/></svg>