<svg id="Layer_4" data-name="Layer 4" xmlns="http://www.w3.org/2000/svg" viewBox="0 0 111.88 83.3"><title>Vector Smart Object2</title><path d="M741.25,2035.76a7.47,7.47,0,0,0-2.18-5.4l-20-20-4.8-4.8-5-5c-0.54.46-1.07,0.94-1.58,1.45-12.84,12.84-10.24,36.26,5.81,52.32,0.9,0.89,1.82,1.74,2.75,2.55a7.46,7.46,0,0,0,3.16.64Z" transform="translate(-675.74 -2000.6)" style="fill:#04b700"/><path d="M776.83,2034.29l0-.06a25.13,25.13,0,0,0-3.14-7.54l-0.14-.24c-0.31-.49-0.64-0.95-1-1.41l-0.32-.43c-0.32-.42-0.66-0.83-1-1.23l-0.43-.48c-0.35-.37-0.7-0.74-1.06-1.09l-0.52-.48c-0.37-.33-0.74-0.67-1.13-1-0.17-.13-0.34-0.25-0.51-0.38a25.24,25.24,0,0,0-2.09-1.44c-0.33-.2-0.65-0.41-1-0.59s-0.63-.33-0.95-0.49-0.74-.37-1.12-0.54-0.63-.26-1-0.39-0.81-.31-1.23-0.45l-0.95-.29c-0.45-.13-0.9-0.24-1.36-0.35l-0.92-.2c-0.51-.1-1-0.17-1.56-0.24-0.26,0-.52-0.08-0.79-0.1-0.79-.08-1.6-0.12-2.42-0.12s-1.34,0-2,.1A25.27,25.27,0,0,0,727.14,2037a7.5,7.5,0,0,0-7.22-5.49H677.84c-0.06.71-.1,1.42-0.1,2.14,0,18.16,18.4,32.89,41.1,32.89,1.27,0,2.51-.05,3.75-0.14a7.52,7.52,0,0,0,4.32-4.33c0,9.66,0,18.78,0,18.78a40.8,40.8,0,0,0,9.2,1.05c1.38,0,2.74-.07,4.08-0.19,0.45,0,.88-0.12,1.33-0.17,0.88-.11,1.77-0.22,2.64-0.37,0.52-.09,1-0.22,1.54-0.33,0.77-.17,1.54-0.34,2.29-0.55,0.54-.15,1.07-0.32,1.6-0.49,0.7-.22,1.4-0.46,2.09-0.71,0.54-.2,1.06-0.41,1.59-0.63s1.3-.56,1.93-0.87,1-.5,1.55-0.77,1.2-.66,1.78-1,1-.59,1.49-0.9,1.1-.76,1.64-1.15,1-.67,1.42-1,1-.85,1.51-1.28,0.89-.74,1.31-1.14q1.28-1.2,2.43-2.5c0.44-.49.84-1,1.26-1.54s0.71-.85,1-1.29,0.76-1.1,1.13-1.66,0.61-.9.89-1.37,0.67-1.17,1-1.76,0.51-.95.74-1.44,0.56-1.23.82-1.85,0.41-1,.59-1.51,0.45-1.27.65-1.92,0.3-1.05.44-1.58,0.33-1.31.46-2c0-.16.08-0.32,0.11-0.48v-0.21a36.85,36.85,0,0,0,.62-6.48A41.85,41.85,0,0,0,776.83,2034.29Z" transform="translate(-675.74 -2000.6)" style="fill:#fff"/><path d="M736.15,2083.9a42.52,42.52,0,0,1-9.63-1.1l-1.56-.34v-1.6s0-6,0-13.39a9.35,9.35,0,0,1-1.61.8l-0.27.1-0.29,0c-1.36.1-2.63,0.15-3.9,0.15-23.77,0-43.1-15.65-43.1-34.89,0-.68,0-1.41.1-2.3l0.15-1.84h43.93a9.49,9.49,0,0,1,6.28,2.39,27.34,27.34,0,0,1,23.88-19,23.57,23.57,0,0,1,4.75,0l0.6,0.08,0.25,0c0.57,0.07,1.13.15,1.69,0.26l0.81,0.18,0.17,0c0.5,0.12,1,.24,1.47.38l1,0.32c0.46,0.15.9,0.32,1.34,0.49l0.09,0c0.32,0.13.63,0.25,0.94,0.39s0.74,0.34,1.1.53l0.38,0.19c0.26,0.13.52,0.26,0.77,0.4s0.52,0.3.78,0.47l0.27,0.16a27.08,27.08,0,0,1,2.27,1.57l0.15,0.11,0.4,0.3c0.39,0.32.77,0.66,1.15,1l0.28,0.25,0.35,0.32c0.4,0.38.77,0.78,1.15,1.18l0.18,0.2,0.3,0.33c0.37,0.42.73,0.86,1.09,1.32l0.33,0.43c0.38,0.52.74,1,1.07,1.54l0.15,0.25a27.18,27.18,0,0,1,3.38,8.07l0,0.07a23.3,23.3,0,0,1,.72,3.3,36.25,36.25,0,0,1,.64,5.66,38.48,38.48,0,0,1-.62,6.66l0,0.4c0,0.13-.05.25-0.09,0.38l0,0.13c-0.14.7-.31,1.39-0.49,2.08s-0.29,1.13-.46,1.68-0.43,1.34-.68,2-0.4,1.07-.63,1.6-0.55,1.3-.86,1.93c-0.22.46-.45,0.89-0.68,1.33l-0.17.32c-0.32.59-.63,1.17-1,1.73-0.24.4-.5,0.8-0.78,1.2l-0.28.42c-0.34.53-.69,1.05-1.07,1.56s-0.55.71-.84,1.06l-0.55.68c-0.33.42-.66,0.83-1,1.23-0.82.92-1.68,1.8-2.55,2.62-0.29.27-.6,0.54-0.91,0.79l-0.46.39-0.37.32c-0.4.35-.8,0.7-1.23,1s-0.75.56-1.13,0.83l-0.35.25c-0.56.4-1.12,0.81-1.71,1.2-0.44.28-.88,0.54-1.33,0.81l-0.24.14c-0.61.36-1.23,0.72-1.86,1.06s-1.08.55-1.63,0.81-1.34.62-2,.91-1.1.45-1.66,0.66c-0.73.27-1.46,0.51-2.19,0.75-0.55.18-1.11,0.35-1.67,0.51-0.79.22-1.59,0.4-2.4,0.58l-0.46.1c-0.38.09-.77,0.17-1.16,0.24-0.95.17-1.92,0.29-2.75,0.39l-0.48.06-0.9.11C738.91,2083.84,737.52,2083.9,736.15,2083.9Zm-7.2-4.69a37.66,37.66,0,0,0,11.11.5l0.71-.09,0.56-.08c0.82-.1,1.68-0.21,2.52-0.36,0.33-.06.66-0.13,1-0.21l0.5-.11c0.73-.16,1.46-0.33,2.18-0.52,0.51-.14,1-0.3,1.52-0.46,0.67-.21,1.34-0.44,2-0.68,0.5-.19,1-0.39,1.51-0.6s1.23-.54,1.84-0.83,1-.48,1.48-0.73,1.14-.63,1.7-1l0.25-.15c0.4-.24.8-0.47,1.18-0.72s1-.71,1.55-1.09l0.38-.27c0.33-.23.66-0.47,1-0.71s0.72-.59,1.06-0.9l0.38-.33,0.5-.43c0.25-.21.51-0.43,0.75-0.65,0.79-.74,1.56-1.54,2.31-2.37,0.3-.34.59-0.7,0.87-1.05l0.59-.73c0.25-.3.49-0.6,0.72-0.91s0.63-.9.93-1.36l0.3-.46c0.23-.34.46-0.68,0.67-1,0.32-.52.6-1,0.88-1.57l0.16-.29c0.21-.39.42-0.78,0.61-1.18,0.27-.57.53-1.15,0.77-1.75s0.39-1,.56-1.43,0.43-1.2.61-1.82,0.29-1,.41-1.5,0.32-1.24.44-1.88c0-.11,0-0.22.08-0.32l0-.33a34.74,34.74,0,0,0,.59-6.13,39.69,39.69,0,0,0-.86-6.44h-0.11l-0.31-1.66a23.13,23.13,0,0,0-2.88-6.88l-0.13-.22c-0.29-.45-0.59-0.88-0.9-1.3l-0.29-.38c-0.3-.39-0.61-0.76-0.93-1.13l-0.43-.47c-0.29-.32-0.62-0.66-1-1l-0.25-.23-0.25-.22c-0.36-.33-0.68-0.62-1-0.89l-0.25-.19-0.22-.16a22.84,22.84,0,0,0-1.94-1.34l-0.28-.17-0.62-.37-0.59-.3-0.39-.19c-0.31-.15-0.62-0.31-0.94-0.45l-0.79-.32-0.1,0c-0.37-.15-0.75-0.29-1.13-0.41l-0.87-.27c-0.42-.12-0.84-0.23-1.26-0.33l-0.16,0-0.68-.15c-0.47-.09-0.95-0.16-1.43-0.22l-0.33,0-0.4-.05a19.68,19.68,0,0,0-4,0,23.31,23.31,0,0,0-21.29,20.41l-3.91.3a5.52,5.52,0,0,0-5.3-4H679.74v0.14c0,17,17.54,30.89,39.1,30.89,1.07,0,2.14,0,3.29-.12a5.53,5.53,0,0,0,2.91-3.08l3.87,0.72C728.92,2069.27,728.94,2076.17,729,2079.22Z" transform="translate(-675.74 -2000.6)" style="fill:#282d33"/><path d="M717.27,2077.48a40.87,40.87,0,0,0,8.7,3.18c1.34,0.32,2.68.57,4,.77,0.45,0.07.89,0.1,1.33,0.15,0.89,0.11,1.77.2,2.65,0.25,0.53,0,1.05,0,1.58,0,0.79,0,1.58,0,2.36,0,0.56,0,1.11-.06,1.67-0.1Z" transform="translate(-675.74 -2000.6)" style="fill:#fff"/><path d="M736.88,2083.88l-1.37,0H735c-0.4,0-.8,0-1.2,0-1-.05-1.89-0.16-2.77-0.26l-0.42,0c-0.32,0-.64-0.06-1-0.11-1.46-.21-2.87-0.48-4.19-0.8a42.57,42.57,0,0,1-9.11-3.32l1.75-3.6a38.84,38.84,0,0,0,8.29,3c1.21,0.29,2.5.54,3.84,0.73l0.77,0.09,0.49,0c0.83,0.1,1.7.2,2.55,0.25l1,0h0.48c0.74,0,1.5,0,2.25,0,0.51,0,1-.05,1.54-0.09l0.33,4c-0.61,0-1.18.08-1.75,0.1Z" transform="translate(-675.74 -2000.6)" style="fill:#282d33"/><circle cx="84.57" cy="31.63" r="3.53" style="fill:#fff"/><path d="M760.3,2037.76a5.53,5.53,0,1,1,5.53-5.53A5.53,5.53,0,0,1,760.3,2037.76Zm0-7.06a1.53,1.53,0,1,0,1.53,1.53A1.53,1.53,0,0,0,760.3,2030.7Z" transform="translate(-675.74 -2000.6)" style="fill:#282d33"/><path d="M763.83,2032.23h0Z" transform="translate(-675.74 -2000.6)" style="fill:#fff"/><rect x="88.1" y="29.63" width="23.78" height="4" style="fill:#282d33"/><path d="M763.83,2031.16l22.35-7.31Z" transform="translate(-675.74 -2000.6)" style="fill:#fff"/><rect x="763.25" y="2025.5" width="23.52" height="4" transform="translate(-1268.01 -1658.91) rotate(-18.12)" style="fill:#282d33"/><path d="M681.31,2044.74h0Z" transform="translate(-675.74 -2000.6)" style="fill:#fff"/><rect x="5.58" y="42.13" width="29.31" height="4" style="fill:#282d33"/><path d="M691.66,2058.34l21.17-5.76Z" transform="translate(-675.74 -2000.6)" style="fill:#fff"/><rect x="691.27" y="2053.46" width="21.94" height="4" transform="translate(-1191.17 -1743.84) rotate(-15.23)" style="fill:#282d33"/><path d="M709.18,2065l9.68-6.89Z" transform="translate(-675.74 -2000.6)" style="fill:#fff"/><rect x="708.08" y="2059.55" width="11.88" height="4" transform="translate(-1739.27 -1204.01) rotate(-35.46)" style="fill:#282d33"/><path d="M749,2078.11a27.07,27.07,0,0,1-.26-3.76c0-15,12.06-27.31,27.43-28.69-0.1,1.15-.27,2.34-0.51,3.61l0,0.26v0.13l-0.06.26c-0.14.64-.3,1.27-0.47,1.89s-0.27,1-.43,1.49c-0.21.64-.42,1.25-0.66,1.85s-0.38,1-.59,1.44-0.54,1.21-.83,1.79c-0.21.42-.45,0.84-0.68,1.26l-0.06.11c-0.32.56-.63,1.13-1,1.68-0.22.36-.46,0.69-0.69,1l-0.38.54c-0.31.45-.62,0.9-1,1.33s-0.51.62-.77,0.92l-0.65.77c-0.29.35-.59,0.7-0.9,1-0.8.85-1.62,1.65-2.46,2.4-0.25.22-.52,0.44-0.79,0.66l-0.95.77c-0.37.3-.73,0.61-1.12,0.89s-0.7.49-1,.73l-0.4.27c-0.6.41-1.12,0.77-1.67,1.11s-0.82.48-1.25,0.72l-0.27.15c-0.6.34-1.2,0.67-1.82,1s-1,.5-1.57.74-1.29.57-2,.84-1.08.42-1.62,0.62Z" transform="translate(-675.74 -2000.6)" style="fill:#04b700"/></svg>