<svg id="Layer_4" data-name="Layer 4" xmlns="http://www.w3.org/2000/svg" viewBox="0 0 79.77 103.18"><title>Vector Smart Object1</title><path d="M853.21,385.21c-3.85,0-7,4.15-7,8a7,7,0,0,0,7,7h62.16Z" transform="translate(-844.24 -298.99)" style="fill:#fff"/><path d="M853.25,402.17h-2V402a9,9,0,0,1-7-8.76c0-4.72,3.83-10,9-10v4c-2.75,0-5,3.28-5,6a5,5,0,0,0,4.91,5h62.21v4H853.25Z" transform="translate(-844.24 -298.99)" style="fill:#282d33"/><polygon points="60.39 8.91 15.69 8.91 15.69 25.84 15.69 48.16 15.69 93.76 77.77 93.76 77.77 48.16 77.77 26.3 60.39 8.91" style="fill:#fff"/><polygon points="79.77 95.76 13.69 95.76 13.69 6.91 60.39 6.91 60.39 10.91 17.69 10.91 17.69 91.76 75.77 91.76 75.77 26.3 79.77 26.3 79.77 95.76" style="fill:#282d33"/><polygon points="63.39 23.3 79.77 23.3 63.39 6.91 63.39 23.3" style="fill:#f8c44f"/><path d="M867,320.3h0Z" transform="translate(-844.24 -298.99)" style="fill:#fff"/><rect x="22.79" y="19.32" width="29.04" height="4" style="fill:#282d33"/><path d="M883,374.65h0Z" transform="translate(-844.24 -298.99)" style="fill:#fff"/><rect x="38.79" y="73.66" width="29.9" height="4" style="fill:#282d33"/><path d="M883,382h0Z" transform="translate(-844.24 -298.99)" style="fill:#fff"/><rect x="38.79" y="81.06" width="29.9" height="4" style="fill:#282d33"/><path d="M867,359h0Z" transform="translate(-844.24 -298.99)" style="fill:#fff"/><rect x="22.72" y="58" width="46.81" height="4" style="fill:#282d33"/><path d="M867,366.38h0Z" transform="translate(-844.24 -298.99)" style="fill:#fff"/><rect x="22.72" y="65.4" width="46.81" height="4" style="fill:#282d33"/><rect x="22.66" y="29.17" width="46.91" height="25.73" style="fill:#04b700"/><rect x="22.66" y="73.34" width="11.88" height="11.88" style="fill:#f8c44f"/><path d="M860,307.4a6.88,6.88,0,0,0-13.72,0h0v85h0a6.88,6.88,0,0,1,13.72,0h0v-85h0Z" transform="translate(-844.24 -298.99)" style="fill:#fff"/><path d="M862.05,394.41h-3.89L858,392.55a4.88,4.88,0,0,0-9.73,0l-0.13,1.86H844.3l0-2v-87h0.36a8.88,8.88,0,0,1,17.05,0H862l0,2v87ZM853.17,384a8.81,8.81,0,0,1,4.89,1.48v-77.7l0-.24a4.88,4.88,0,0,0-9.73,0l0,0.27v77.67A8.81,8.81,0,0,1,853.17,384Z" transform="translate(-844.24 -298.99)" style="fill:#282d33"/></svg>